# xmcd CD database file
#
# Track frame offsets:
#	150
#	10204
#	28228
#	44763
#	57088
#	65856
#	79650
#	89033
#	102591
#	113386
#	129261
#	140922
#	155136
#	168382
#	183853
#	220392
#	236919
#
# Disc length: 3410 seconds
#
# Revision: 0
# Processed by: cddbd v1.5.2PL0 Copyright (c) Steve Scherf et al.
# Submitted via: CDex 1.70beta2
#
DISCID=fd0d5011
DTITLE=Ahmad Jamal - Penthouse/Pershing
DYEAR=1900
DGENRE=Jazz
TTITLE0=comme ci, comme ca
TTITLE1=ivy
TTITLE2=never never land
TTITLE3=tangerine
TTITLE4=ahmads blues
TTITLE5=seleritus
TTITLE6=i like to recognize the tune
TTITLE7=i´m alone with you
TTITLE8=sophisticated gentleman
TTITLE9=but not for me
TTITLE10=the surrey with the fringe on top
TTITLE11=moonlight in vermont
TTITLE12=music, music ,music
TTITLE13=no greater love
TTITLE14=poinciana
TTITLE15=woody ´n ´ you
TTITLE16=what´s new?
EXTD=
EXTT0=
EXTT1=
EXTT2=
EXTT3=
EXTT4=
EXTT5=
EXTT6=
EXTT7=
EXTT8=
EXTT9=
EXTT10=
EXTT11=
EXTT12=
EXTT13=
EXTT14=
EXTT15=
EXTT16=
PLAYORDER=
